<?xml version="1.0" encoding="UTF-8" standalone="no"?>
<!-- Created with Inkscape (http://www.inkscape.org/) -->

<svg
   xmlns:dc="http://purl.org/dc/elements/1.1/"
   xmlns:cc="http://creativecommons.org/ns#"
   xmlns:rdf="http://www.w3.org/1999/02/22-rdf-syntax-ns#"
   xmlns:svg="http://www.w3.org/2000/svg"
   xmlns="http://www.w3.org/2000/svg"
   xmlns:sodipodi="http://sodipodi.sourceforge.net/DTD/sodipodi-0.dtd"
   xmlns:inkscape="http://www.inkscape.org/namespaces/inkscape"
   width="108.02953mm"
   height="170.14342mm"
   viewBox="0 0 108.02953 170.14342"
   version="1.1"
   id="svg11529"
   inkscape:version="0.92.5 (2060ec1f9f, 2020-04-08)"
   sodipodi:docname="actinia-icon.svg">
  <defs
     id="defs11523" />
  <sodipodi:namedview
     id="base"
     pagecolor="#ffffff"
     bordercolor="#666666"
     borderopacity="1.0"
     inkscape:pageopacity="0.0"
     inkscape:pageshadow="2"
     inkscape:zoom="0.7"
     inkscape:cx="388.88898"
     inkscape:cy="121.63806"
     inkscape:document-units="mm"
     inkscape:current-layer="layer1"
     showgrid="false"
     inkscape:window-width="1920"
     inkscape:window-height="1015"
     inkscape:window-x="0"
     inkscape:window-y="0"
     inkscape:window-maximized="1"
     fit-margin-top="0"
     fit-margin-left="0"
     fit-margin-right="0"
     fit-margin-bottom="0" />
  <metadata
     id="metadata11526">
    <rdf:RDF>
      <cc:Work
         rdf:about="">
        <dc:format>image/svg+xml</dc:format>
        <dc:type
           rdf:resource="http://purl.org/dc/dcmitype/StillImage" />
        <dc:title></dc:title>
      </cc:Work>
    </rdf:RDF>
  </metadata>
  <g
     inkscape:label="Ebene 1"
     inkscape:groupmode="layer"
     id="layer1"
     transform="translate(92.926543,-10.87333)">
    <path
       id="path19564"
       d="m -19.00486,11.593279 c -2.639962,1.375679 -3.945934,2.167343 -5.623673,3.405887 -1.805524,1.334582 -3.551612,2.895632 -4.74619,4.244489 -0.524177,0.592667 -1.033976,1.165867 -1.133073,1.274017 -0.0984,0.108151 -0.679979,0.93875 -1.2923,1.847217 -3.145674,4.667359 -4.940958,10.314998 -5.776752,18.174321 -0.412774,3.879372 -0.523478,6.910625 -0.647186,17.787358 -0.08073,7.063117 -0.203562,12.170866 -0.311626,12.886392 -0.403197,2.689712 -0.53921,3.462775 -0.83648,4.743281 -0.171489,0.739752 -0.377233,1.557373 -0.457195,1.819098 -0.566548,1.853706 -0.920544,2.832038 -1.441296,3.99055 -0.16538,0.367713 -0.301371,0.705144 -0.301371,0.746241 0,0.108151 -1.146055,2.396407 -1.667483,3.32737 -1.425564,2.545439 -3.48054,5.512883 -6.424612,9.275884 -0.635558,0.811131 -1.628537,2.080823 -2.207372,2.819709 -0.578831,0.739752 -1.452227,1.877499 -1.94084,2.529867 -0.487937,0.65323 -1.079095,1.43408 -1.313486,1.73906 -0.526206,0.68352 -2.713767,3.91658 -2.713767,4.01024 0,0.0433 -0.294543,0.54941 -0.654692,1.13775 -0.647187,1.05555 -2.534719,4.68899 -2.534719,4.87803 0,0.0433 -0.15098,0.43477 -0.334862,0.84791 -0.18458,0.41097 -0.397043,0.89116 -0.472228,1.06636 -0.580882,1.33675 -1.750871,5.33963 -2.147914,7.35167 -0.445567,2.2597 -0.53441,2.7732 -0.697761,4.03208 -0.509122,3.93691 -0.640336,11.4071 -0.240543,13.73646 0.153162,0.89332 0.218681,0.9474 -5.132995,-4.23973 l -4.884237,-4.73312 0.107344,-1.11612 c 0.05869,-0.61429 0.214689,-1.72176 0.345794,-2.46086 0.216652,-1.22427 0.329385,-1.85587 0.618474,-3.47835 0.05476,-0.30498 0.171489,-0.87386 0.260375,-1.26536 0.08814,-0.39151 0.224158,-0.99716 0.30207,-1.34324 0.28839,-1.29348 1.457681,-6.02249 1.58344,-6.40383 0.07178,-0.21846 0.217961,-0.71596 0.326658,-1.1053 0.107999,-0.39151 0.251496,-0.889 0.318456,-1.10746 0.06764,-0.21847 0.212507,-0.71596 0.32188,-1.10747 0.109963,-0.39151 0.324608,-1.10314 0.477006,-1.58117 0.153163,-0.47802 0.58158,-1.82991 0.95266,-3.00421 0.909592,-2.87811 1.27249,-3.97152 1.441972,-4.34831 0.07855,-0.17305 0.320506,-0.85007 0.537835,-1.50114 0.217307,-0.653229 0.6219,-1.790976 0.897984,-2.529863 0.276783,-0.739752 0.559697,-1.522764 0.629405,-1.739066 0.124363,-0.389343 0.546715,-1.514112 0.802313,-2.134898 0.07113,-0.173042 0.501617,-1.276181 0.956761,-2.450483 0.454469,-1.174518 0.90141,-2.312482 0.99298,-2.529865 0.204434,-0.486679 0.445567,-1.083672 0.606867,-1.501134 0.06698,-0.173041 0.230987,-0.564548 0.364927,-0.869533 0.133963,-0.304985 0.397742,-0.943076 0.586358,-1.421102 0.18938,-0.475864 0.522104,-1.252387 0.738757,-1.721762 0.697062,-1.509786 -0.04582,-1.563862 -0.94378,-0.06489 -0.303423,0.506146 -1.074994,1.773674 -1.713278,2.816465 -1.190476,1.944553 -1.472037,2.422796 -2.23744,3.794582 -0.241918,0.434766 -0.69979,1.25455 -1.017569,1.819097 -0.597288,1.064205 -4.332735,8.512342 -4.757808,9.486562 -0.133308,0.30498 -0.400469,0.90847 -0.594562,1.34323 -0.19418,0.43477 -0.444214,1.00364 -0.556293,1.26537 -0.111489,0.26172 -0.313677,0.72245 -0.447617,1.02743 -0.134617,0.30499 -0.437363,1.05123 -0.671776,1.65904 -0.235088,0.60997 -0.48521,1.25022 -0.556292,1.42326 -0.07113,0.17304 -0.28634,0.74408 -0.479058,1.26537 -0.192652,0.52345 -0.412098,1.09232 -0.487261,1.26536 -0.257648,0.59267 -1.284795,3.75284 -1.748121,5.37618 -0.907541,3.18223 -1.517135,5.82306 -1.914876,8.29734 -0.146835,0.91279 -0.37108,1.45138 -0.523479,1.25887 -0.02945,-0.0433 -0.558344,-0.6727 -1.174767,-1.41245 -4.75576,-5.70388 -5.973571,-10.73787 -4.271914,-17.66471 0.650591,-2.64992 2.79031,-7.57597 4.081245,-9.397231 0.163416,-0.231443 0.297269,-0.462885 0.297269,-0.516961 0,-0.04326 0.241242,-0.469375 0.535784,-0.923608 0.293867,-0.456397 0.809142,-1.25455 1.14468,-1.775838 0.974522,-1.516275 5.047569,-7.081935 5.495193,-7.510212 0.04582,-0.04326 0.278834,-0.339594 0.518024,-0.657558 0.239867,-0.317963 0.527581,-0.674861 0.63966,-0.791664 0.112144,-0.108151 0.452417,-0.532102 0.75584,-0.923608 0.303422,-0.391507 0.59046,-0.746241 0.637608,-0.791665 0.04778,-0.04326 0.407298,-0.469375 0.799564,-0.949564 0.392265,-0.478027 0.751061,-0.904142 0.797534,-0.947402 0.04647,-0.04326 0.405247,-0.469375 0.797534,-0.949565 0.392265,-0.478026 0.750364,-0.906304 0.79616,-0.949564 0.04582,-0.04326 0.47633,-0.540755 0.958114,-1.107465 0.481108,-0.564548 0.911642,-1.064205 0.956064,-1.107465 0.04451,-0.04326 0.54534,-0.612134 1.113938,-1.265365 0.568577,-0.651069 1.071568,-1.222105 1.117364,-1.265365 0.468803,-0.441256 4.213143,-4.879551 5.203384,-6.166114 3.309691,-4.300944 6.693187,-10.184351 8.183676,-14.230492 0.112144,-0.304985 0.264477,-0.696491 0.33964,-0.869533 0.135271,-0.3158 1.303929,-3.848873 1.568385,-4.74328 0.17978,-0.605645 0.569951,-2.251269 0.975198,-4.111031 0.07593,-0.348246 0.213162,-1.165867 0.305473,-1.819098 0.09164,-0.653231 0.251496,-1.719599 0.354673,-2.371965 0.209889,-1.321603 0.280885,-8.371526 0.09164,-9.051579 -0.250121,-0.901978 -0.658794,-0.525613 -1.072943,0.988499 -0.107344,0.391506 -0.250121,0.889 -0.317102,1.107465 -0.06764,0.218465 -0.211198,0.715959 -0.319153,1.107465 -0.107999,0.391506 -0.255598,0.889 -0.327335,1.107465 -0.07178,0.216302 -0.358099,1.142073 -0.635558,2.054866 -0.636932,2.091638 -1.423514,4.432888 -2.071377,6.166763 -0.276782,0.739752 -0.559696,1.522764 -0.629405,1.739066 -0.139416,0.43693 -1.961348,4.973642 -2.349518,5.850313 -0.134617,0.304986 -0.336237,0.765708 -0.448316,1.027433 -0.600016,1.399473 -1.042179,2.33195 -2.432892,5.134139 -0.839904,1.693642 -1.87388,3.673452 -2.297581,4.400442 -0.423028,0.726774 -0.769498,1.341071 -0.769498,1.367027 0,0.151411 -2.515584,4.151263 -3.876227,6.174982 -2.159521,3.212081 -6.665851,9.130097 -7.764753,10.197978 -0.04451,0.04326 -0.609594,0.683514 -1.256082,1.423266 -0.645812,0.739752 -3.447053,3.584769 -6.224376,6.324014 -6.145787,6.062505 -6.723259,6.720279 -8.81377,10.040727 -0.376556,0.599155 -1.633315,3.113882 -1.895066,3.794152 -0.475653,1.23508 -0.783178,2.15436 -0.925322,2.76693 -0.09098,0.3915 -0.208361,0.889 -0.261052,1.10746 -0.788632,3.2495 -0.640335,7.53466 0.38476,11.10731 0.0936,0.32662 0.233038,0.82411 0.309576,1.10747 1.075669,3.97087 4.453013,9.2324 8.647019,13.47235 l 2.026955,2.04838 0.105163,2.06135 c 0.05804,1.13559 0.176944,2.48985 0.263103,3.01157 0.302746,1.82992 0.505719,2.85367 0.735331,3.71542 0.127199,0.47803 0.28839,1.08367 0.358098,1.34323 0.156435,0.58402 0.612322,1.94456 0.794786,2.37132 0.0744,0.17304 0.226885,0.56671 0.338964,0.86953 2.87915,7.81715 9.083027,14.86253 15.9744,18.14231 1.111211,0.52778 1.120768,0.57969 0.161235,0.82844 -0.844683,0.22062 -1.013467,0.26821 -3.388964,0.95821 -1.66613,0.48452 -2.342,0.70082 -2.950224,0.94091 -0.175635,0.0649 -0.570628,0.21631 -0.877476,0.31581 -0.306848,0.10815 -0.70184,0.24658 -0.876799,0.3158 -0.175634,0.0649 -0.749687,0.28768 -1.275893,0.48451 -0.526904,0.19467 -1.407805,0.56022 -1.957923,0.80681 -0.550817,0.24658 -1.036703,0.44774 -1.079772,0.44774 -0.09011,0 -2.186187,0.9712 -4.299249,1.99214 -1.992788,0.96254 -5.595653,2.9045 -6.324153,3.40719 -0.233038,0.15141 -0.466752,0.292 -0.520752,0.292 -0.05324,0 -0.472904,0.2401 -0.932151,0.53211 -0.459246,0.29417 -1.731714,1.09665 -2.828578,1.78232 -2.593492,1.62659 -4.625229,3.04683 -4.625229,3.23588 0,0.36122 0.539209,0.27037 2.089834,-0.34392 0.912341,-0.36339 1.837663,-0.71596 2.057021,-0.78518 0.219379,-0.0649 1.008688,-0.35041 1.754274,-0.62295 2.191652,-0.80464 8.395528,-2.82187 10.28717,-3.34424 0.350593,-0.0865 0.817345,-0.22928 1.036703,-0.2985 0.218682,-0.0649 0.685455,-0.19467 1.036027,-0.29633 0.555594,-0.15141 1.646297,-0.46505 3.349327,-0.95822 0.263103,-0.0865 1.411906,-0.36122 2.551804,-0.63376 1.140578,-0.27254 2.324917,-0.55806 2.63176,-0.63593 0.984776,-0.25091 2.944074,-0.67486 4.386041,-0.95172 0.526206,-0.10816 1.243778,-0.24443 1.594371,-0.31797 0.351269,-0.0649 1.10436,-0.2163 1.675009,-0.30931 0.569951,-0.0865 1.3955,-0.24009 1.834237,-0.31796 0.751062,-0.12978 1.787089,-0.29201 4.105846,-0.62728 0.548766,-0.0865 1.715329,-0.21846 2.592126,-0.30715 0.877475,-0.0865 2.348834,-0.25091 3.269369,-0.35906 2.310565,-0.27037 12.800706,-0.2747 14.912402,-0.007 4.823413,0.61213 6.138269,0.8717 10.525676,2.08299 3.914496,1.08151 8.952497,3.86596 12.1207242,6.70124 0.3512694,0.31364 0.7278258,0.5732 0.8378539,0.57536 1.2301192,0.0216 -3.4142511,-4.27845 -7.6157731,-7.05208 -2.53882,-1.67634 -6.774512,-3.89452 -9.210139,-4.82396 -0.197453,-0.0649 -0.520054,-0.19468 -0.717572,-0.2812 -1.662704,-0.66404 -3.364364,-1.22426 -4.853484,-1.59414 -1.333995,-0.3331 -2.100766,-0.79166 -1.321013,-0.79166 0.608219,0 5.705679,-2.72411 8.845888,-4.72685 0.874748,-0.55805 4.02179,-2.8104 4.226126,-3.02454 0.04364,-0.0433 0.40252,-0.32878 0.797534,-0.62944 0.394993,-0.30066 0.75379,-0.58185 0.797535,-0.62944 0.04364,-0.0433 0.546038,-0.4737 1.115989,-0.94956 3.381448,-2.82577 5.722082,-5.81095 7.8392438,-9.99942 0.5378349,-1.0642 0.7449093,-1.30646 1.6121301,-1.88831 5.6113691,-3.763 11.5740076,-10.03878 14.6527092,-15.42296 2.3030459,-4.02776 3.9821529,-8.05703 5.2580509,-12.61667 1.817219,-6.49467 2.45066,-15.549713 1.546458,-22.103224 -0.174544,-1.258876 -0.450977,-1.899129 -0.711484,-1.64173 -0.05454,0.04326 -0.196362,1.291322 -0.313743,2.750061 -0.34996,4.311758 -0.808574,7.403363 -1.637417,11.032683 -0.0792,0.34825 -0.222107,0.9885 -0.317778,1.42327 -0.202908,0.92577 -0.385437,1.60712 -0.99298,3.71541 -0.08749,0.30499 -0.21938,0.76787 -0.292492,1.02744 -0.358098,1.27618 -1.6661294,4.93708 -1.8164771,5.08611 -0.058036,0.0649 -0.1060353,0.19468 -0.1060353,0.31797 0,0.10815 -0.1503259,0.5494 -0.3348623,0.96254 -0.1839255,0.41097 -0.3929635,0.89116 -0.4640247,1.06421 -0.3075243,0.75273 -2.9023861,5.9152 -3.3042252,6.57449 -0.2432923,0.39799 -0.7954615,1.30213 -1.2273702,2.0116 -1.527389,2.50478 -4.1072161,5.71881 -6.623483,8.25343 -1.7898157,1.80179 -2.2060045,2.07433 -1.9975665,1.3043 0.8439847,-3.10977 1.2875223,-6.45747 1.6408426,-12.38977 l 0.269932,-4.52308 1.1057349,-1.64389 c 1.3339945,-1.98133 2.94407375,-4.54277 3.9397828,-6.26821 0.9724708,-1.68499 1.2205411,-2.12192 2.1622703,-3.81578 0.7838544,-1.41029 0.073745,-1.52925 -0.8289521,-0.12978 -1.169967,1.80179 -5.1616963,7.26038 -6.1314354,8.38364 -0.494788,0.5732 -0.6464884,0.33959 -0.6464884,-1.00148 0,-0.70298 -0.07309,-1.96618 -0.1618893,-2.80695 -0.3102735,-2.92483 -0.4879372,-4.38162 -0.6635719,-5.42766 -0.1736711,-1.03176 -0.1660348,-1.07934 0.4223305,-2.52986 0.6054924,-1.49248 1.7597505,-4.806226 2.0290061,-5.825224 0.080727,-0.304985 0.2193798,-0.802479 0.3075244,-1.107465 0.2931681,-1.007966 0.6991133,-2.684953 0.9369292,-3.873315 0.0868356,-0.434766 0.23508871,-1.146399 0.32870964,-1.581166 0.0942536,-0.434766 0.24056498,-1.217779 0.32530599,-1.739066 0.0855265,-0.521287 0.22825965,-1.375679 0.31777879,-1.896966 1.43718958,-8.37945 1.68525998,-27.288116 0.34033458,-25.954832 -0.17498015,0.173041 -0.27063015,0.878185 -0.3710801,2.737947 -0.13112603,2.440966 -0.28633909,4.340744 -0.61504869,7.56364 -0.20508895,2.009443 -0.66152101,5.428308 -0.94923461,7.114597 -0.089454,0.521287 -0.2303105,1.375679 -0.313677,1.896966 -0.1634166,1.02527 -0.5720018,3.092033 -0.8118686,4.111031 -0.5255296,2.230503 -1.1645126,4.802331 -1.2758933,5.138248 -0.072436,0.218464 -0.28839,0.927934 -0.4804318,1.581165 -0.4127743,1.399472 -0.9246458,2.955331 -1.119393,3.399182 -0.075926,0.173041 -0.2296123,0.584015 -0.3403386,0.908467 -0.2644774,0.776524 -0.3751818,0.748404 -0.6123214,-0.151411 -0.3779091,-1.447058 -0.4230287,-1.542231 -0.7353312,-1.542231 -0.1682166,0 -0.2904409,0.08652 -0.272681,0.173041 0.8050396,4.313706 0.8624427,3.96546 -1.3866195,8.360492 -1.8321866,3.58001 -3.1060376,5.61325 -5.4719566,8.73513 -0.828952,1.09449 -0.846734,1.08151 -0.962915,-0.71163 -0.192652,-2.98648 -0.725774,-7.56926 -1.208235,-10.39589 -0.585682,-3.427522 -0.63966,-3.069759 0.679302,-4.506219 1.401652,-1.524927 3.512661,-5.012144 4.260981,-7.035863 0.319153,-0.863044 0.497515,-1.475177 0.920544,-3.162764 0.662895,-2.642991 0.52758,-7.58873 -0.207053,-7.58873 -0.304797,0 -0.433959,0.276866 -0.882951,1.896966 -1.200054,4.331443 -6.698655,13.375451 -6.698655,11.017762 0,-0.320127 -1.577963,-6.539234 -2.244273,-8.843497 -0.08138,-0.283355 -0.213816,-0.746241 -0.294543,-1.027433 -0.08073,-0.283355 -0.373131,-1.261039 -0.651288,-2.174049 -0.277459,-0.912793 -0.561748,-1.873173 -0.632132,-2.134898 -0.0696,-0.261725 -0.233038,-0.793827 -0.362201,-1.185333 -0.129162,-0.391506 -0.328033,-1.03176 -0.440788,-1.423266 -0.112799,-0.391506 -0.295219,-0.997151 -0.404571,-1.345397 -0.60139,-1.907781 -1.321689,-5.319076 -1.853371,-8.775145 -0.27951,-1.819098 -0.284987,-9.642299 -0.0068,-11.14711 0.112145,-0.607808 0.282238,-1.533579 0.378608,-2.054867 0.155125,-0.843576 0.322557,-1.533579 0.767447,-3.162764 0.760618,-2.785966 2.139034,-5.80835 3.688291,-8.088171 1.70645,-2.51083 -0.646488,-1.066367 -3.473705,2.132736 -2.143136,2.425391 -3.952767,5.443882 -4.802913,8.010951 -0.362876,1.09665 -0.639659,2.290635 -0.98615,4.256169 -0.213162,1.209127 -0.212507,6.261503 6.83e-4,7.729759 0.403894,2.779045 0.512548,3.44374 0.806414,4.932112 0.171489,0.869533 0.377909,1.866684 0.458548,2.213632 0.399095,1.717436 0.832378,3.535236 0.960864,4.031865 0.07854,0.304985 0.187198,0.7311 0.240565,0.949564 0.110617,0.449908 0.909591,3.480944 1.353805,5.138897 0.554918,2.067845 2.339952,9.166003 2.544971,10.119461 0.112799,0.521287 0.259699,1.16154 0.327357,1.423265 0.06764,0.261725 0.208361,0.901979 0.313677,1.423266 0.104508,0.521287 0.252848,1.23292 0.328709,1.581165 0.431232,1.968346 0.628031,1.730414 -4.789244,5.780446 -1.096178,0.81979 -2.029006,1.52709 -2.072751,1.57035 -0.04451,0.0433 -0.690233,0.54076 -1.435819,1.10098 -1.356532,1.02094 -4.474882,3.47294 -4.625229,3.63625 -0.04364,0.0433 -0.689557,0.61862 -1.435143,1.26753 -1.745394,1.5206 -4.905422,4.65329 -6.225746,6.17152 -0.566547,0.65106 -1.070193,1.21994 -1.11804,1.26536 -0.472905,0.42828 -2.93109,3.65442 -3.954818,5.18973 -5.327078,7.99321 -7.423055,17.64719 -6.42598,29.5944 0.16189,1.94672 0.09164,1.98349 -0.975896,0.51696 -0.492039,-0.67486 -1.407107,-1.83423 -2.033784,-2.57269 -0.627354,-0.73975 -1.199356,-1.48599 -1.27249,-1.6612 -0.264477,-0.6316 -1.025772,-4.41861 -1.271813,-6.32466 -0.08945,-0.69649 -0.235089,-1.8191 -0.323932,-2.49655 -0.238514,-1.82343 -0.192652,-7.6294 0.07789,-9.83611 0.469501,-3.83676 1.064041,-6.52323 2.169776,-9.80301 0.47633,-1.41461 0.552868,-1.6201 0.940355,-2.52986 0.11149,-0.26173 0.259001,-0.61646 0.328709,-0.79167 0.06894,-0.17304 0.595915,-1.27618 1.169967,-2.4507 2.659782,-5.43696 4.679901,-8.36525 12.10569,-17.550288 3.447055,-4.264822 6.666537,-10.506857 8.072967,-15.653325 0.10669,-0.391506 0.256274,-0.925771 0.332135,-1.185333 0.209889,-0.722448 0.745586,-3.482458 0.950609,-4.90183 0.101235,-0.696492 0.218682,-1.479504 0.262427,-1.739066 0.738756,-4.42164 0.480431,-14.423649 -0.585682,-22.656093 -0.202253,-1.561699 -0.190689,-6.45877 0.01845,-8.017873 0.227584,-1.695806 0.697063,-4.155157 0.949933,-4.980348 0.06698,-0.216302 0.209889,-0.715959 0.317779,-1.107465 2.092562,-7.569912 8.511024,-16.802968 15.277336,-21.977987 1.952469,-1.492482 1.478866,-1.853706 -0.843985,-0.644579 m -2.133558,91.085747 c 0.05476,0.47802 0.18589,1.61577 0.291816,2.52835 0.380658,3.27524 0.493413,5.04351 0.586358,9.17098 l 0.09425,4.18954 -0.854937,0.79816 c -3.093053,2.89174 -6.511404,5.38223 -13.294117,9.68577 -2.44041,1.54872 -4.940276,3.71563 -6.781347,5.88017 -0.481108,0.56454 -0.91234,1.06204 -0.959489,1.10746 -0.259001,0.2401 -1.780238,2.47644 -2.473211,3.6356 -2.617411,4.37946 -4.595845,9.9276 -5.496561,15.41691 -0.09971,0.60997 -0.24807,1.49248 -0.329408,1.96402 -0.08138,0.47153 -0.148362,1.1637 -0.148362,1.54223 0,0.81546 -0.155126,0.87169 -0.477705,0.17304 -0.316404,-0.68568 -0.336236,-10.73787 -0.02596,-13.24199 0.69091,-5.57929 1.98801,-11.3009 3.207864,-14.15111 0.0744,-0.17304 0.295917,-0.74408 0.492039,-1.26537 0.493413,-1.31511 2.443144,-5.2929 3.196929,-6.52387 0.343742,-0.56023 0.624627,-1.05123 0.624627,-1.088 0,-0.0433 0.369029,-0.61862 0.820748,-1.28916 3.17438,-4.71213 7.465428,-9.33407 12.020266,-12.94804 2.650214,-2.10245 4.473516,-3.44979 7.161999,-5.29074 2.101442,-1.43841 2.211472,-1.45355 2.344051,-0.29201 m 15.029944,12.26626 c -0.1852346,5.29831 0.1906891,4.42618 -3.475756,8.05919 -2.865481,2.83939 -3.306957,3.24387 -5.131625,4.69915 -1.23217,0.98201 -1.542421,1.10098 -1.433768,0.54941 0.06633,-0.33527 0.173671,-1.16371 0.569275,-4.38747 0.09011,-0.73975 0.164726,-1.86668 0.164726,-2.50629 l -6.86e-4,-1.16154 1.873881,-1.84289 c 2.732221,-2.68755 4.6019952,-5.15641 6.6843048,-8.82511 l 0.6123215,-1.07934 0.1461804,1.02094 c 0.090108,0.62728 0.086836,2.74054 -0.00888,5.47633 m -14.7934897,9.74958 c -0.246696,1.55089 -0.823498,4.33318 -1.057888,5.09888 -0.07985,0.26173 -0.291118,0.97336 -0.470178,1.58117 -0.698437,2.37737 -0.624626,2.24867 -1.647671,2.88417 -10.816804,6.72352 -17.550313,12.01837 -21.217419,16.68227 -0.597965,0.76138 -1.111211,1.38433 -1.139226,1.38433 -0.19418,0 0.9301,-2.37478 1.965451,-4.15061 0.190034,-0.32662 0.492039,-0.85007 0.672473,-1.16587 0.755164,-1.3216 4.19674,-6.08825 5.087206,-7.04625 0.135926,-0.15141 0.570627,-0.65539 0.964965,-1.12909 1.109837,-1.33458 6.902308,-7.00558 8.772082,-8.58826 2.748622,-2.32589 7.738783,-6.18234 8.035379,-6.20938 0.07789,-0.007 0.0936,0.28985 0.03491,0.65756 m 13.8633872,0.3158 c -0.2227833,1.45571 -0.7565164,3.96352 -1.2027813,5.65262 -0.4414648,1.67201 -1.307333,4.4742 -1.5875194,5.13889 -0.073745,0.17304 -0.2965935,0.74192 -0.4961415,1.26537 -1.278642,3.34965 -2.277078,5.18172 -3.052733,5.60438 -2.062497,1.1226 -4.606095,2.31226 -5.867646,2.74595 -0.394316,0.12978 -1.302554,0.45856 -2.018751,0.71595 -1.52056,0.54941 -1.593672,0.52562 -1.079074,-0.34608 1.426241,-2.42063 3.194881,-6.33742 4.101064,-9.07926 0.423705,-1.28267 0.61027,-1.54223 1.86908,-2.58805 1.935385,-1.60929 5.803407,-5.63228 8.0032611,-8.32481 0.9054895,-1.10963 1.2273701,-1.44706 1.3804668,-1.45355 0.030109,-0.002 0.00752,0.2985 -0.049309,0.66838 m -67.5421529,11.76984 c 3.795586,2.57464 11.137319,10.62885 11.934159,13.09361 0.196798,0.60781 0.425756,1.26753 0.509122,1.4622 0.08335,0.19467 0.22346,0.53426 0.31095,0.75056 0.08749,0.21847 0.224834,0.5559 0.305474,0.75057 1.420088,3.45996 3.684874,7.17019 6.267431,10.26828 0.588409,0.7073 0.602765,0.75057 0.302746,0.90847 -0.649914,0.34392 -1.496647,-0.0649 -4.620445,-2.28264 -9.281894,-6.56238 -14.911716,-14.9365 -15.573244,-23.16418 -0.05258,-0.65323 -0.133308,-1.38217 -0.17978,-1.6201 -0.09905,-0.5148 0.149671,-0.57104 0.743535,-0.17304 m 48.319568,4.17548 c 0,0.41747 -3.134058,5.71426 -4.352552,7.35578 -2.767759,3.72774 -2.966627,3.95529 -4.137286,4.72165 -3.647289,2.38884 -8.606698,6.43022 -11.770825,9.59363 -0.727128,0.72677 -2.386422,1.0642 -2.386422,0.48668 0,-1.41894 3.302857,-6.94783 6.210711,-10.39438 1.377718,-1.63308 5.027066,-5.03875 6.83875,-6.3822 0.410724,-0.30499 0.997082,-0.74192 1.304606,-0.97336 0.306848,-0.23144 1.167916,-0.80031 1.913502,-1.2632 3.875542,-2.40787 6.379508,-3.64231 6.379508,-3.14503 m 9.248064,7.96226 c 0,0.0433 -0.636932,0.8068 -1.414634,1.70013 -4.579442,5.25894 -10.032264,9.16341 -16.926371,12.12068 -2.0707,0.889 -2.448609,0.96903 -3.98557,0.86305 -1.590269,-0.10815 -1.803474,-0.2163 -1.152884,-0.54076 0.451043,-0.22711 1.408482,-0.81113 3.304223,-2.00944 1.29025,-0.81762 3.565282,-2.50283 4.936858,-3.65874 0.522802,-0.44126 1.00186,-0.80032 1.064041,-0.80032 0.06284,0 0.735331,-0.35474 1.494597,-0.7895 0.759941,-0.43477 1.405753,-0.79167 1.435819,-0.79167 0.03011,0 0.675877,-0.35473 1.435142,-0.79166 0.759266,-0.43477 1.402329,-0.7895 1.428292,-0.7895 0.02662,0 1.869081,-1.03176 4.09423,-2.2928 3.811989,-2.15869 4.286266,-2.40441 4.286266,-2.21688"
       inkscape:connector-curvature="0"
       style="fill:#86cd31;fill-rule:evenodd;stroke:none;stroke-width:0.68044925"
       sodipodi:nodetypes="cccccccccccscccccscscccccccccccccccccccccccccccccccccccccccccccccccsccccccccccccccccccccccccccccccccccsccccccccccccccccccccccccccsccsccsccccccccccccccccccccccccscccccccccccccccccscccccccccccccsccccccccccccccccccccsccccccccscsccccccccccccccccccccccccccccccccccccccccccccccccccccccccccccccccccscccccscccccccccccccccccccccscccccccccccccccccccccccccccccccccccsccccccccccccscscscc" />
  </g>
</svg>
